HIERARCHY
ROOT Hips
{
    OFFSET 0.000000 0.000000 0.000000
    CHANNELS 6 Xposition Yposition Zposition Zrotation Xrotation Yrotation
    JOINT Spine
    {
        OFFSET -0.000000 7.284621 0.000000
        CHANNELS 3 Zrotation Xrotation Yrotation
        JOINT Spine1
        {
            OFFSET -0.000000 19.968920 0.000000
            CHANNELS 3 Zrotation Xrotation Yrotation
            JOINT Neck
            {
                OFFSET -0.000000 21.745657 0.000000
                CHANNELS 3 Zrotation Xrotation Yrotation
                JOINT Head
                {
                    OFFSET -0.000000 13.769711 1.776737
                    CHANNELS 3 Zrotation Xrotation Yrotation
                    End Site
                    {
                        OFFSET -0.000000 17.767368 0.000000
                    }
                }
            }
            JOINT LeftShoulder
            {
                OFFSET 3.594505 17.711157 -0.013107
                CHANNELS 3 Zrotation Xrotation Yrotation
                JOINT LeftArm
                {
                    OFFSET 12.210003 0.000000 0.000000
                    CHANNELS 3 Zrotation Xrotation Yrotation
                    JOINT LeftForeArm
                    {
                        OFFSET 24.535166 0.000000 0.000000
                        CHANNELS 3 Zrotation Xrotation Yrotation
                        JOINT LeftHand
                        {
                            OFFSET 20.235195 0.000000 0.000000
                            CHANNELS 3 Zrotation Xrotation Yrotation
                            JOINT LeftHandThumb1
                            {
                                OFFSET 1.906737 -2.166747 3.033446
                                CHANNELS 3 Zrotation Xrotation Yrotation
                                JOINT LeftHandThumb2
                                {
                                    OFFSET 2.043247 0.000000 1.332553
                                    CHANNELS 3 Zrotation Xrotation Yrotation
                                    JOINT LeftHandThumb3
                                    {
                                        OFFSET 2.665105 0.000000 0.000000
                                        CHANNELS 3 Zrotation Xrotation Yrotation
                                        End Site
                                        {
                                            OFFSET 2.367595 0.000000 0.000000
                                        }
                                    }
                                }
                            }
                            JOINT LeftHandIndex1
                            {
                                OFFSET 7.800290 0.000000 3.033446
                                CHANNELS 3 Zrotation Xrotation Yrotation
                                JOINT LeftHandIndex2
                                {
                                    OFFSET 4.441842 0.000000 0.000000
                                    CHANNELS 3 Zrotation Xrotation Yrotation
                                    JOINT LeftHandIndex3
                                    {
                                        OFFSET 2.220921 0.000000 0.000000
                                        CHANNELS 3 Zrotation Xrotation Yrotation
                                        End Site
                                        {
                                            OFFSET 1.972996 0.000000 0.000000
                                        }
                                    }
                                }
                            }
                            JOINT LeftHandMiddle1
                            {
                                OFFSET 7.800290 0.000000 1.005371
                                CHANNELS 3 Zrotation Xrotation Yrotation
                                JOINT LeftHandMiddle2
                                {
                                    OFFSET 4.886026 0.000000 0.000000
                                    CHANNELS 3 Zrotation Xrotation Yrotation
                                    JOINT LeftHandMiddle3
                                    {
                                        OFFSET 2.665105 0.000000 0.000000
                                        CHANNELS 3 Zrotation Xrotation Yrotation
                                        End Site
                                        {
                                            OFFSET 2.367595 0.000000 0.000000
                                        }
                                    }
                                }
                            }
                            JOINT LeftHandRing1
                            {
                                OFFSET 7.366940 0.000000 -1.005371
                                CHANNELS 3 Zrotation Xrotation Yrotation
                                JOINT LeftHandRing2
                                {
                                    OFFSET 4.441842 0.000000 0.000000
                                    CHANNELS 3 Zrotation Xrotation Yrotation
                                    JOINT LeftHandRing3
                                    {
                                        OFFSET 2.220921 0.000000 0.000000
                                        CHANNELS 3 Zrotation Xrotation Yrotation
                                        End Site
                                        {
                                            OFFSET 1.972996 0.000000 0.000000
                                        }
                                    }
                                }
                            }
                            JOINT LeftHandPinky1
                            {
                                OFFSET 6.933591 0.000000 -3.033446
                                CHANNELS 3 Zrotation Xrotation Yrotation
                                JOINT LeftHandPinky2
                                {
                                    OFFSET 3.553473 0.000000 0.000000
                                    CHANNELS 3 Zrotation Xrotation Yrotation
                                    JOINT LeftHandPinky3
                                    {
                                        OFFSET 1.776737 0.000000 0.000000
                                        CHANNELS 3 Zrotation Xrotation Yrotation
                                        End Site
                                        {
                                            OFFSET 1.578397 0.000000 0.000000
                                        }
                                    }
                                }
                            }
                        }
                    }
                }
            }
            JOINT RightShoulder
            {
                OFFSET -3.500468 17.711157 -0.013107
                CHANNELS 3 Zrotation Xrotation Yrotation
                JOINT RightArm
                {
                    OFFSET -12.210003 0.000000 0.000000
                    CHANNELS 3 Zrotation Xrotation Yrotation
                    JOINT RightForeArm
                    {
                        OFFSET -24.535166 0.000000 0.000000
                        CHANNELS 3 Zrotation Xrotation Yrotation
                        JOINT RightHand
                        {
                            OFFSET -20.235195 0.000000 0.000000
                            CHANNELS 3 Zrotation Xrotation Yrotation
                            JOINT RightHandThumb1
                            {
                                OFFSET -1.906737 -2.166747 3.033446
                                CHANNELS 3 Zrotation Xrotation Yrotation
                                JOINT RightHandThumb2
                                {
                                    OFFSET -2.043247 0.000000 1.332553
                                    CHANNELS 3 Zrotation Xrotation Yrotation
                                    JOINT RightHandThumb3
                                    {
                                        OFFSET -2.665105 0.000000 0.000000
                                        CHANNELS 3 Zrotation Xrotation Yrotation
                                        End Site
                                        {
                                            OFFSET -2.367595 0.000000 0.000000
                                        }
                                    }
                                }
                            }
                            JOINT RightHandIndex1
                            {
                                OFFSET -7.800290 0.000000 3.033446
                                CHANNELS 3 Zrotation Xrotation Yrotation
                                JOINT RightHandIndex2
                                {
                                    OFFSET -4.441842 0.000000 0.000000
                                    CHANNELS 3 Zrotation Xrotation Yrotation
                                    JOINT RightHandIndex3
                                    {
                                        OFFSET -2.220921 0.000000 0.000000
                                        CHANNELS 3 Zrotation Xrotation Yrotation
                                        End Site
                                        {
                                            OFFSET -1.972996 0.000000 0.000000
                                        }
                                    }
                                }
                            }
                            JOINT RightHandMiddle1
                            {
                                OFFSET -7.800290 0.000000 1.005371
                                CHANNELS 3 Zrotation Xrotation Yrotation
                                JOINT RightHandMiddle2
                                {
                                    OFFSET -4.886026 0.000000 0.000000
                                    CHANNELS 3 Zrotation Xrotation Yrotation
                                    JOINT RightHandMiddle3
                                    {
                                        OFFSET -2.665105 0.000000 0.000000
                                        CHANNELS 3 Zrotation Xrotation Yrotation
                                        End Site
                                        {
                                            OFFSET -2.367595 0.000000 0.000000
                                        }
                                    }
                                }
                            }
                            JOINT RightHandRing1
                            {
                                OFFSET -7.366940 0.000000 -1.005371
                                CHANNELS 3 Zrotation Xrotation Yrotation
                                JOINT RightHandRing2
                                {
                                    OFFSET -4.441842 0.000000 0.000000
                                    CHANNELS 3 Zrotation Xrotation Yrotation
                                    JOINT RightHandRing3
                                    {
                                        OFFSET -2.220921 0.000000 0.000000
                                        CHANNELS 3 Zrotation Xrotation Yrotation
                                        End Site
                                        {
                                            OFFSET -1.972996 0.000000 0.000000
                                        }
                                    }
                                }
                            }
                            JOINT RightHandPinky1
                            {
                                OFFSET -6.933591 0.000000 -3.033446
                                CHANNELS 3 Zrotation Xrotation Yrotation
                                JOINT RightHandPinky2
                                {
                                    OFFSET -3.553473 0.000000 0.000000
                                    CHANNELS 3 Zrotation Xrotation Yrotation
                                    JOINT RightHandPinky3
                                    {
                                        OFFSET -1.776737 0.000000 0.000000
                                        CHANNELS 3 Zrotation Xrotation Yrotation
                                        End Site
                                        {
                                            OFFSET -1.578397 0.000000 0.000000
                                        }
                                    }
                                }
                            }
                        }
                    }
                }
            }
        }
    }
    JOINT LeftUpLeg
    {
        OFFSET 8.883684 0.000000 0.000000
        CHANNELS 3 Zrotation Xrotation Yrotation
        JOINT LeftLeg
        {
            OFFSET -0.000000 -38.184189 0.000000
            CHANNELS 3 Zrotation Xrotation Yrotation
            JOINT LeftFoot
            {
                OFFSET -0.000000 -35.840691 0.000000
                CHANNELS 3 Zrotation Xrotation Yrotation
                JOINT LeftToeBase
                {
                    OFFSET -0.000000 -5.774395 13.325527
                    CHANNELS 3 Zrotation Xrotation Yrotation
                    End Site
                    {
                        OFFSET -0.000000 0.000000 3.553473
                    }
                }
            }
        }
    }
    JOINT RightUpLeg
    {
        OFFSET -8.883684 0.000000 0.000000
        CHANNELS 3 Zrotation Xrotation Yrotation
        JOINT RightLeg
        {
            OFFSET -0.000000 -38.184189 0.000000
            CHANNELS 3 Zrotation Xrotation Yrotation
            JOINT RightFoot
            {
                OFFSET -0.000000 -35.840691 0.000000
                CHANNELS 3 Zrotation Xrotation Yrotation
                JOINT RightToeBase
                {
                    OFFSET -0.000000 -5.774395 13.325527
                    CHANNELS 3 Zrotation Xrotation Yrotation
                    End Site
                    {
                        OFFSET -0.000000 0.000000 3.553473
                    }
                }
            }
        }
    }
}
MOTION
Frames:    4
Frame Time:    0.008333
-7.443404    73.156181    99.159889    8.238277    5.612133    60.525394    -11.389977    -8.915254    -8.991538    -4.221422    11.885302    -2.258610    10.138289    17.435440    -23.003134    -3.952824    2.250211    -20.292927    6.424995    11.275324    -9.994801    -63.346611    52.224487    7.376834    56.866993    -2.579599    -67.106560    0.960010    -25.242239    -43.524471    -8.793315    7.673254    1.479516    -0.000000    0.000000    3.149380    -0.000000    0.000000    6.298759    41.286968    0.000000    -0.000000    0.000000    0.000000    0.000000    0.000000    0.000000    0.000000    24.996187    0.941809    6.427272    -5.504556    0.000000    0.000000    -2.752279    0.000000    0.000000    8.703051    0.040890    12.860415    -11.009112    0.000000    0.000000    -5.504558    0.000000    0.000000    -7.885030    -2.726323    18.954731    -16.680473    0.000000    0.000000    -8.340237    0.000000    0.000000    -6.459096    8.632045    0.309841    100.471481    45.050888    -11.727994    -53.006474    -24.202051    34.898258    -21.683201    -64.100311    -26.813021    -2.071777    0.857328    -2.955476    0.000000    0.000000    -2.588326    0.000000    0.000000    -5.176651    -18.542999    0.000000    0.000000    0.000000    0.000000    0.000000    0.000000    0.000000    0.000000    -14.785270    0.630136    -3.245540    0.000000    0.000000    0.000000    0.000000    0.000000    0.000000    -10.997422    1.045298    -6.525810    0.000000    0.000000    0.000000    0.000000    0.000000    0.000000    -7.076166    1.244841    -9.926870    0.000000    0.000000    0.000000    0.000000    0.000000    0.000000    -9.554818    -10.878591    18.335760    -16.000374    44.634693    20.644791    12.317233    -32.770531    18.730648    0.106030    1.876959    0.362371    -34.166348    -42.832127    -22.981323    44.218826    48.993874    -44.993172    -4.576639    26.179953    3.858902    -0.153944    -1.168631    0.310758    
-7.694693    73.474625    99.326286    7.514924    4.943877    62.285355    -12.115682    -8.586084    -10.257833    -1.849006    11.913264    -2.919698    10.046244    17.741611    -23.281979    -4.576540    1.878513    -20.508495    6.551838    11.094003    -10.271668    -64.536430    53.851452    6.148210    55.639984    0.764720    -64.431137    1.740688    -26.801908    -44.924519    -8.332979    7.592831    1.974469    -0.000000    0.000000    3.461851    -0.000000    0.000000    6.923701    40.925159    0.000000    -0.000000    0.000000    0.000000    0.000000    0.000000    0.000000    0.000000    24.984106    1.005054    6.582464    -5.042385    0.000000    0.000000    -2.521193    0.000000    0.000000    9.033559    0.161098    13.187579    -10.084770    0.000000    0.000000    -5.042385    0.000000    0.000000    -7.200049    -2.561859    19.484720    -15.279955    0.000000    0.000000    -7.639976    0.000000    0.000000    -6.305913    8.853584    -0.226786    99.821373    42.939625    -11.345639    -57.239151    -24.043283    36.353058    -23.604382    -61.164001    -25.199413    -1.920284    1.022432    -3.126778    0.000000    0.000000    -2.801830    0.000000    0.000000    -5.603659    -18.390982    0.000000    0.000000    0.000000    0.000000    0.000000    0.000000    0.000000    0.000000    -14.553477    0.634704    -3.367176    0.000000    0.000000    0.000000    0.000000    0.000000    0.000000    -10.684835    1.041645    -6.769701    0.000000    0.000000    0.000000    0.000000    0.000000    0.000000    -6.680593    1.219223    -10.296113    0.000000    0.000000    0.000000    0.000000    0.000000    0.000000    -8.376713    -10.785120    18.155457    -15.567985    44.319393    20.126575    11.796219    -32.513454    17.119621    0.120641    1.903404    0.334490    -32.584812    -42.913307    -21.593845    42.109512    49.087467    -43.256390    -3.969631    26.399282    3.872046    -0.140821    -1.159646    0.287788    
-7.955308    73.803902    99.539482    6.754857    4.153244    64.102348    -12.835712    -8.221739    -11.604216    0.680367    11.936272    -3.627656    9.887127    18.089985    -23.530807    -5.163719    1.503347    -20.718800    6.733571    10.867348    -10.665918    -65.900284    55.498589    4.990023    54.117210    4.290040    -61.653942    2.618915    -28.594124    -46.369915    -7.895265    7.672422    2.741403    -0.000000    0.000000    4.046761    -0.000000    0.000000    8.093521    40.665558    0.000000    -0.000000    0.000000    0.000000    0.000000    0.000000    0.000000    0.000000    25.008060    1.064300    6.723633    -4.645181    0.000000    0.000000    -2.322590    0.000000    0.000000    9.334172    0.271478    13.484780    -9.290362    0.000000    0.000000    -4.645181    0.000000    0.000000    -6.613266    -2.413750    19.963873    -14.076305    0.000000    0.000000    -7.038151    0.000000    0.000000    -6.136694    9.001723    -0.758776    99.005562    40.660622    -10.922322    -61.522854    -23.990461    37.844849    -25.085207    -58.252193    -22.893532    -1.878814    1.119459    -3.260986    0.000000    0.000000    -2.973244    0.000000    0.000000    -5.946489    -18.080860    0.000000    0.000000    0.000000    0.000000    0.000000    0.000000    0.000000    0.000000    -14.173643    0.631002    -3.498570    0.000000    0.000000    0.000000    0.000000    0.000000    0.000000    -10.234734    1.021094    -7.032425    0.000000    0.000000    0.000000    0.000000    0.000000    0.000000    -6.158961    1.167527    -10.692796    0.000000    0.000000    0.000000    0.000000    0.000000    0.000000    -7.020178    -10.732507    17.978424    -15.189374    44.038040    19.495281    11.321631    -32.241867    15.597655    0.141786    1.943210    0.294690    -30.780161    -42.974480    -20.041988    39.863239    49.130791    -41.448837    -3.297659    26.602165    3.946563    -0.139657    -1.142307    0.285054    
-8.217728    74.147453    99.801170    5.984237    3.240486    65.972740    -13.533750    -7.823304    -13.020010    3.308530    11.980945    -4.374173    9.744773    18.459534    -23.770367    -5.794832    1.112336    -20.912796    6.969805    10.604133    -11.164647    -67.368706    57.197693    3.863937    52.148769    7.805594    -58.739059    3.486670    -30.466045    -47.773796    -7.217779    7.797844    3.912449    -0.000000    0.000000    5.017821    -0.000000    0.000000    10.035642    40.552719    0.000000    -0.000000    0.000000    0.000000    0.000000    0.000000    0.000000    0.000000    25.093824    1.118244    6.840735    -4.321061    0.000000    0.000000    -2.160530    0.000000    0.000000    9.612217    0.369163    13.731870    -8.642121    0.000000    0.000000    -4.321061    0.000000    0.000000    -6.136376    -2.286683    20.360867    -13.094123    0.000000    0.000000    -6.547061    0.000000    0.000000    -5.949115    9.006440    -1.239041    98.174126    38.371960    -10.545177    -65.963348    -24.067831    39.168034    -26.242342    -55.750229    -20.131134    -2.039722    1.169948    -3.456260    0.000000    0.000000    -3.180327    0.000000    0.000000    -6.360655    -17.888971    0.000000    0.000000    0.000000    0.000000    0.000000    0.000000    0.000000    0.000000    -14.034416    0.632892    -3.539257    0.000000    0.000000    0.000000    0.000000    0.000000    0.000000    -10.147674    1.025355    -7.113481    0.000000    0.000000    0.000000    0.000000    0.000000    0.000000    -6.125286    1.174726    -10.815386    0.000000    0.000000    0.000000    0.000000    0.000000    0.000000    -5.511749    -10.713471    17.820179    -14.808818    43.790009    18.730192    10.860480    -31.953562    14.136686    0.167653    1.991997    0.246114    -28.752615    -42.988773    -18.345905    37.441185    49.133240    -39.517067    -2.453208    26.770737    4.033525    -0.140451    -1.120994    0.285520    
